<svg xmlns="http://www.w3.org/2000/svg" width="128" height="128" viewBox="0 0 128 128">
  <defs>
    <linearGradient id="g" x1="0" y1="0" x2="1" y2="1">
      <stop offset="0" stop-color="#F59E0B"/>
      <stop offset="1" stop-color="#FB923C"/>
    </linearGradient>
  </defs>
  <rect x="8" y="8" width="112" height="112" rx="28" fill="url(#g)"/>
  <path d="M38 73c0-14 12-26 26-26 10 0 19 6 24 14-6-4-14-5-21-2-8 4-13 12-13 21v10H38V73z" fill="#111827" opacity="0.92"/>
  <path d="M58 44c4-10 14-16 25-16 2 0 4 0 6 1-7 3-12 9-14 16-1 4-1 8 0 12-4-6-11-10-17-13z" fill="#111827" opacity="0.92"/>
  <circle cx="76" cy="56" r="4" fill="#111827"/>
</svg>

